# xmcd
#
# Track frame offsets: 
#        150
#        15200
#        33180
#        49742
#        62185
#        79185
#        93790
#        107137
#        117125
#        132532
#        147757
#        163200
#        176277
#        188610
#
# Disc length: 2751 seconds
#
# Revision: 1
# Processed by: cddbd v1.5.1PL0 Copyright (c) Steve Scherf et al.
# Submitted via: ExactAudioCopy v0.95a5
#
DISCID=ad0abd0e
DTITLE=Becky Schlegel and True Blue - This Lonesome Song
DYEAR=2000
DGENRE=Country
TTITLE0=This Lonesome Song
TTITLE1=If You Leave Me
TTITLE2=Carolina Rain
TTITLE3=Don't Come Running
TTITLE4=Mr. Man In The Moon
TTITLE5=I Think I'll Leave 
TTITLE6=Jenny Lynn
TTITLE7=Used To Be
TTITLE8='Til The Answer Comes
TTITLE9=You Beat All I've Ever Seen
TTITLE10=Fireball Express
TTITLE11=Sunny Side of the Mountain
TTITLE12=I Can't Go On Loving You
TTITLE13=Alone With The Lord
EXTD=
EXTT0=
EXTT1=
EXTT2=
EXTT3=
EXTT4=
EXTT5=
EXTT6=
EXTT7=
EXTT8=
EXTT9=
EXTT10=
EXTT11=
EXTT12=
EXTT13=
PLAYORDER=
